<?xml version="1.0" encoding="UTF-8" standalone="no"?>
<svg width="512px" height="512px" viewBox="0 0 512 512" version="1.1" xmlns="http://www.w3.org/2000/svg" xmlns:xlink="http://www.w3.org/1999/xlink" xmlns:sketch="http://www.bohemiancoding.com/sketch/ns">
    <!-- Generator: Sketch 3.5.1 (25234) - http://www.bohemiancoding.com/sketch -->
    <title>logo2</title>
    <desc>Created with Sketch.</desc>
    <defs></defs>
    <g id="Android" stroke="none" stroke-width="1" fill="none" fill-rule="evenodd" sketch:type="MSPage">
        <g id="logo2" sketch:type="MSArtboardGroup">
            <g id="Rectangle-5-+-klichat" sketch:type="MSLayerGroup" transform="translate(56.000000, 155.000000)">
                <g id="klichat" transform="translate(0.494401, 0.126409)" sketch:type="MSShapeGroup">
                    <path d="M386.386061,74.0442924 C392.121887,100.116226 392.121887,89.1660141 386.386061,115.237948 C377.521604,154.867288 319.64191,169.989009 255.504953,172.074764 L255.504953,180.417783 C255.504953,187.717924 249.769127,193.45375 242.468986,193.45375 L176.767712,193.45375 C169.467571,193.45375 163.731745,187.717924 163.731745,180.417783 L163.731745,166.338939 C80.3015566,154.345849 5.73582547,124.623844 7.82158019,94.9018396 C6.77870283,77.6943632 14.0788443,69.3513443 49.5366745,55.7939387 C38.0650236,59.4440094 33.3720755,59.9654481 28.1576887,61.5297641 C25.5504953,62.5726415 22.9433019,63.0940802 18.7717924,65.7012736 C14.0788443,55.2725 9.38589622,40.672217 7.30014151,30.7648821 C7.30014151,28.1576887 7.82158019,26.071934 9.38589622,24.5076179 C17.2074764,19.2932311 25.5504953,14.0788443 33.3720755,8.86445755 C35.9792689,7.30014151 38.5864623,7.30014151 41.1936557,7.82158019 L79.7801179,41.1936557 C182.503538,6.77870283 369.178585,-2.6071934 386.386061,74.0442924 L386.386061,74.0442924 L386.386061,74.0442924 Z M68.308467,145.481391 C52.6653066,141.831321 37.5435849,139.224127 29.200566,131.402547 C26.071934,138.702689 23.9861792,143.917075 22.9433019,150.695778 C22.9433019,152.260094 23.4647406,153.82441 23.9861792,154.867288 C29.200566,158.517358 34.9363915,161.645991 40.1507783,165.296061 C41.7150943,166.338939 43.800849,166.338939 45.3651651,165.8175 L68.308467,145.481391 L68.308467,145.481391 Z" id="Shape" fill="#4285F4"></path>
                    <path d="M11.9930896,33.3720755 C11.9930896,32.8506368 11.9930896,32.3291981 11.4716509,31.8077594 C11.4716509,31.2863207 11.4716509,30.2434434 11.9930896,29.7220047 C19.8146698,24.5076179 27.63625,19.8146698 35.4578302,14.600283 C36.5007075,14.0788443 37.0221462,14.0788443 38.0650236,14.0788443 L77.6943632,48.4937972 L80.3015566,47.4509198 C97.509033,41.7150943 115.237948,37.0221462 132.966863,33.8935141 C152.260094,29.7220047 172.074764,27.1148113 191.367995,25.0290566 C211.704104,22.9433019 232.040212,22.4218632 252.376321,22.9433019 C270.626674,23.4647406 289.919906,25.0290566 307.648821,28.6791274 C332.156439,33.3720755 360.314127,42.7579717 374.91441,63.0940802 C380.650236,71.437099 384.300307,82.3873113 384.300307,94.3804009 C384.300307,94.9018396 384.300307,95.4232783 383.778868,96.4661556 C381.171674,85.5159434 380.128797,76.6514858 375.435849,69.3513443 C362.399882,47.4509198 338.413703,40.672217 307.127382,32.3291981 C288.877028,28.6791274 270.105236,27.1148113 251.854882,26.5933726 C231.518774,26.071934 211.182665,27.1148113 190.846557,28.6791274 C171.031887,30.7648821 151.738656,33.3720755 132.445425,37.5435849 C114.716509,41.1936557 96.9875943,45.8866038 79.7801179,51.1009906 L77.1729245,52.1438679 L67.7870283,44.3222877 L65.1798349,42.236533 L37.0221462,17.7289151 C35.9792689,17.7289151 35.4578302,17.7289151 34.4149528,18.2503538 L11.9930896,33.3720755 L11.9930896,33.3720755 Z" id="Shape" fill="#FFFFFF"></path>
                    <path d="M383.257429,109.502123 C384.821745,104.287736 384.821745,96.4661556 383.778868,99.5947877 C365.007075,179.374906 70.3942217,150.17434 22.9433019,98.5519104 L21.3789858,99.073349 C60.4868868,138.18125 125.145283,155.388726 199.189575,160.081675 C274.798184,164.774623 370.221462,160.081675 383.257429,109.502123 L383.257429,109.502123 Z" id="Shape" fill="#FFFFFF"></path>
                    <path d="M159.560236,36.5007075 L164.253184,35.4578302 C146.524269,66.2227123 146.524269,106.894929 164.253184,154.867288 L159.038797,154.867288 C140.788443,111.587877 140.788443,70.9156604 159.560236,36.5007075 L159.560236,36.5007075 Z" id="Shape" fill="#FFFFFF"></path>
                    <path d="M81.8658726,53.1867453 C72.4799764,74.5657311 68.308467,104.287736 80.3015566,134.009741 L75.6086085,132.966863 C65.7012736,105.852052 67.2655896,80.3015566 76.6514858,57.3582547 L81.8658726,53.1867453 L81.8658726,53.1867453 Z" id="Shape" fill="#FFFFFF"></path>
                    <path d="M234.647406,29.200566 L239.861792,29.200566 C222.132877,62.0512028 221.611439,106.373491 239.340354,157.474481 L234.125967,157.474481 C215.354174,111.066439 215.875613,66.2227123 234.647406,29.200566 L234.647406,29.200566 Z" id="Shape" fill="#FFFFFF"></path>
                    <path d="M322.249104,40.1507783 C310.777453,67.2655896 307.127382,111.066439 320.684788,144.438514 L315.470401,147.045708 C301.912995,113.673632 305.041627,68.8299056 318.077594,39.1079009 L322.249104,40.1507783 L322.249104,40.1507783 Z" id="Shape" fill="#FFFFFF"></path>
                    <path d="M266.455165,51.1009906 C306.084505,55.7939387 339.978019,64.1369575 368.135707,75.6086085 C367.614269,75.6086085 366.571391,77.1729245 366.049953,77.1729245 C333.199316,64.6583962 292.527099,57.8796934 247.161934,54.2296226 C201.27533,51.1009906 151.217217,52.1438679 105.852052,59.4440094 C76.1300472,64.1369575 46.9294811,71.9585377 26.5933726,82.3873113 C27.1148113,81.8658726 27.63625,80.8229953 28.1576887,80.8229953 C51.1009906,67.2655896 88.1231368,57.8796934 125.666722,53.1867453 C172.074764,47.4509198 222.132877,45.8866038 266.455165,51.1009906 L266.455165,51.1009906 Z" id="Shape" fill="#FFFFFF"></path>
                    <path d="M24.5076179,95.4232783 C139.745566,95.4232783 256.54783,99.5947877 371.26434,100.116226 C370.742901,98.5519104 370.742901,94.9018396 371.26434,92.2946462 L24.5076179,93.8589622 L24.5076179,95.4232783 L24.5076179,95.4232783 Z" id="Shape" fill="#FFFFFF"></path>
                    <path d="M385.343184,97.509033 C385.864623,78.2158019 374.392972,59.9654481 365.528514,55.7939387 C354.578302,74.0442924 354.056863,107.937807 363.442759,132.445425 C375.435849,122.53809 383.257429,110.023561 385.343184,97.509033 L385.343184,97.509033 Z" id="Shape" fill="#FFFFFF"></path>
                    <ellipse id="Oval" fill="#FFFFFF" cx="185.63217" cy="177.81059" rx="6.25726415" ry="6.25726415"></ellipse>
                    <ellipse id="Oval" fill="#FFFFFF" cx="209.618349" cy="177.81059" rx="6.25726415" ry="6.25726415"></ellipse>
                    <ellipse id="Oval" fill="#FFFFFF" cx="233.604528" cy="177.81059" rx="6.25726415" ry="6.25726415"></ellipse>
                </g>
            </g>
        </g>
    </g>
</svg>