<?xml version="1.0" encoding="UTF-8" standalone="no"?>
<svg width="512px" height="512px" viewBox="0 0 512 512" version="1.1" xmlns="http://www.w3.org/2000/svg" xmlns:xlink="http://www.w3.org/1999/xlink" xmlns:sketch="http://www.bohemiancoding.com/sketch/ns">
    <!-- Generator: Sketch 3.5.1 (25234) - http://www.bohemiancoding.com/sketch -->
    <title>logo6 </title>
    <desc>Created with Sketch.</desc>
    <defs>
        <linearGradient x1="49.985349%" y1="-949.019334%" x2="49.985349%" y2="1391.58154%" id="linearGradient-1">
            <stop stop-color="#FFFFFF" offset="0%"></stop>
            <stop stop-color="#FFFFFF" offset="100%"></stop>
        </linearGradient>
    </defs>
    <g id="Android" stroke="none" stroke-width="1" fill="none" fill-rule="evenodd" sketch:type="MSPage">
        <g id="logo6" sketch:type="MSArtboardGroup">
            <g id="klichat_launch" sketch:type="MSLayerGroup" transform="translate(56.000000, 155.000000)">
                <path d="M23.030303,128.939394 C20,135.606061 17.4242424,142.727273 16.0606061,150 L15.9090909,150.606061 L15.9090909,151.212121 C15.7575758,154.545455 16.6666667,157.878788 18.9393939,160.454545 L19.5454545,161.212121 L20.4545455,161.818182 C25.9090909,165.30303 31.2121212,168.787879 36.6666667,172.272727 L36.8181818,172.272727 L36.969697,172.272727 C40.4545455,174.393939 44.2424242,174.69697 48.1818182,173.484848 L49.6969697,173.030303 L72.5757576,152.424242 C82.4242424,155.909091 92.5757576,158.939394 102.575758,161.515152 C120.454545,166.212121 138.787879,170 157.121212,172.878788 L157.121212,180.606061 C157.121212,191.969697 166.363636,201.212121 177.727273,201.212121 L243.181818,201.212121 C254.545455,201.212121 263.787879,191.969697 263.787879,180.606061 L263.787879,179.393939 C309.090909,177.272727 378.939394,166.212121 394.090909,117.878788 C401.060606,95.6060606 401.060606,94.5454545 394.090909,72.4242424 C392.878788,68.4848485 391.363636,64.8484848 389.393939,61.2121212 C374.242424,33.7878788 340,21.2121212 310.909091,15.3030303 C272.727273,7.57575758 230,7.87878788 191.212121,11.6666667 C154.848485,15.1515152 116.818182,22.1212121 81.8181818,33.4848485 L45.4545455,1.66666667 L43.9393939,1.21212121 C39.2424242,-0.303030303 34.5454545,0.151515152 30.1515152,2.72727273 L30,2.72727273 L29.8484848,2.72727273 C21.8181818,7.87878788 13.7878788,13.1818182 5.60606061,18.3333333 L4.6969697,18.9393939 L4.09090909,19.6969697 C1.36363636,22.8787879 0.303030303,26.8181818 0.454545455,30.9090909 L0.454545455,31.5151515 L0.606060606,32.1212121 C2.87878788,44.0909091 7.57575758,57.8787879 12.5757576,68.9393939 L12.5757576,68.9393939 C5.15151515,76.5151515 0.151515152,85.1515152 0.757575758,94.8484848 C0.151515152,108.787879 10.6060606,120.151515 23.030303,128.939394 L23.030303,128.939394 Z" id="Shape" fill="#FFFFFF" sketch:type="MSShapeGroup"></path>
                <path d="M386.969697,74.6969697 C392.727273,100.909091 392.878788,89.6969697 386.969697,115.909091 C378.030303,155.30303 320.30303,170.757576 256.212121,172.575758 L256.212121,180.757576 C256.212121,188.030303 250.151515,194.090909 242.878788,194.090909 L177.424242,194.090909 C170.151515,194.090909 164.090909,188.030303 164.090909,180.757576 L164.090909,166.666667 C80.6060606,154.393939 6.06060606,125.151515 8.18181818,95.3030303 C6.96969697,77.8787879 14.6969697,69.6969697 50,55.9090909 C38.4848485,59.5454545 33.7878788,60.1515152 28.7878788,61.8181818 C26.0606061,62.7272727 23.7878788,63.1818182 19.3939394,66.2121212 C14.5454545,55.6060606 10,41.3636364 7.87878788,31.0606061 C7.87878788,28.6363636 8.33333333,26.3636364 9.6969697,24.8484848 C17.7272727,19.6969697 25.7575758,14.3939394 33.9393939,9.24242424 C36.5151515,7.72727273 39.0909091,7.57575758 41.6666667,8.48484848 L80,41.969697 C183.181818,7.27272727 370.151515,-2.27272727 386.969697,74.6969697 L386.969697,74.6969697 L386.969697,74.6969697 Z M68.6363636,146.060606 C52.8787879,142.424242 37.8787879,140 29.6969697,131.969697 C26.5151515,139.090909 24.5454545,144.545455 23.1818182,151.363636 C23.1818182,153.030303 23.4848485,154.545455 24.3939394,155.606061 C29.8484848,159.090909 35.1515152,162.575758 40.6060606,166.060606 C42.2727273,167.121212 44.0909091,167.121212 45.7575758,166.666667 L68.6363636,146.060606 L68.6363636,146.060606 Z" id="Shape" fill="#4285F4" sketch:type="MSShapeGroup"></path>
                <path d="M12.4242424,33.7878788 C12.2727273,33.1818182 12.1212121,32.5757576 12.1212121,31.969697 C12.1212121,31.3636364 12.1212121,30.6060606 12.4242424,30 C20.1515152,25 28.030303,20 35.7575758,15 C36.6666667,14.5454545 37.4242424,14.3939394 38.3333333,14.5454545 L78.1818182,49.2424242 L81.0606061,48.3333333 C98.1818182,42.5757576 115.909091,38.1818182 133.636364,34.5454545 C153.030303,30.6060606 172.575758,27.7272727 192.121212,25.7575758 C212.272727,23.7878788 232.727273,22.8787879 253.030303,23.4848485 C271.515152,23.9393939 290.30303,25.6060606 308.484848,29.2424242 C333.484848,34.3939394 362.575758,43.3333333 375.757576,67.1212121 C377.272727,70 378.636364,72.8787879 379.545455,75.9090909 C381.060606,80.6060606 382.575758,85.1515152 384.242424,89.8484848 C384.69697,91.3636364 385.454545,93.4848485 385.454545,95 C385.454545,95.6060606 385.30303,96.2121212 385.151515,96.969697 C384.848485,95.7575758 384.393939,94.5454545 384.090909,93.6363636 C382.575758,88.9393939 380.909091,84.3939394 379.393939,79.6969697 C378.484848,76.6666667 377.121212,73.6363636 375.606061,70.9090909 C362.424242,47.1212121 333.333333,38.030303 308.333333,33.030303 C290.151515,29.3939394 271.363636,27.7272727 252.878788,27.2727273 C232.575758,26.8181818 212.121212,27.5757576 191.969697,29.5454545 C172.272727,31.3636364 152.727273,34.3939394 133.484848,38.3333333 C115.757576,41.969697 98.030303,46.3636364 80.9090909,52.1212121 L78.030303,53.030303 L68.7878788,45 L66.2121212,42.8787879 L38.3333333,18.1818182 C37.4242424,18.030303 36.6666667,18.1818182 35.7575758,18.6363636 L12.4242424,33.7878788 L12.4242424,33.7878788 Z" id="Shape" fill="url(#linearGradient-1)" sketch:type="MSShapeGroup"></path>
                <path d="M113.30387,109.03845 C113.714467,103.426964 111.250887,97.9523429 102.080897,97.5417464 C107.829249,96.8574187 117.683567,83.8551939 115.904315,74.1377417 C114.398794,66.3364068 105.502535,69.3474483 100.438511,70.8529691 C98.3855281,78.2437074 98.3855281,91.9302599 89.763,93.7095117 C90.0367311,89.877277 91.8159829,83.3077318 91.8159829,76.6013211 C91.6791174,65.3783481 77.0345063,70.579238 73.7497337,71.9478933 C72.9285405,84.402656 72.2442129,87.6874286 69.917499,102.605771 C69.2331714,107.669795 67.317054,115.744861 67.1801885,120.124558 C66.6327264,131.758127 81.0036065,128.61022 85.3833033,124.64112 C86.2044964,119.713961 87.7100172,109.722778 88.2574793,104.111292 C94.4164279,103.700695 95.237621,105.343081 93.4583692,118.345306 C91.5422519,131.347531 107.281787,128.883951 112.482677,124.504255 C111.661484,119.713961 113.030139,113.691878 113.30387,109.03845 L113.30387,109.03845 L113.30387,109.03845 Z M124.663709,70.579238 C126.853557,75.6432624 122.063264,97.9523429 121.105205,105.206216 C120.010281,110.954568 118.094164,117.934709 118.50476,122.861868 C119.189088,132.031859 135.202354,131.210665 138.07653,123.546196 C134.381161,117.934709 136.707875,110.954568 138.213396,102.468905 C139.034589,97.1311498 143.003689,77.0119177 142.866824,72.6322209 C142.456227,64.2834239 128.359078,66.1995413 124.663709,70.579238 L124.663709,70.579238 L124.663709,70.579238 Z M162.438594,114.376206 C162.712325,104.795619 165.723366,97.9523429 166.270828,90.6984701 C167.228887,78.3805729 154.089797,79.0649006 147.793982,84.8132526 C149.436369,86.4556389 149.162638,90.6984701 149.025772,92.6145875 C148.752041,101.510847 146.699058,107.943526 145.056672,117.387247 C143.961748,123.683062 146.288462,128.61022 151.626217,129.020817 C156.690241,129.431414 162.027997,127.515296 165.175904,119.166499 C162.84919,117.934709 162.438594,117.250382 162.438594,114.376206 L162.438594,114.376206 L162.438594,114.376206 Z M160.11188,65.2414826 C171.608584,64.830886 168.460677,78.928035 158.469493,79.2017661 C148.752041,79.4754971 150.394427,66.0626757 160.11188,65.2414826 L160.11188,65.2414826 L160.11188,65.2414826 Z M244.694774,99.0472671 C244.694774,99.0472671 242.231194,109.859644 241.13627,116.292323 C239.767615,125.188582 242.36806,128.199624 247.432084,128.199624 C252.906705,128.199624 260.023712,123.819927 260.844906,118.755903 C259.202519,118.345306 258.655057,116.566054 259.47625,111.228299 L261.666099,97.5417464 C263.445351,86.4556389 257.149536,81.2547489 250.032529,81.2547489 C244.694774,81.2547489 239.220153,84.128925 236.619708,89.6035459 L238.946422,72.0847588 C239.357018,67.9787931 236.619708,67.0207344 232.513742,67.0207344 C228.681507,67.0207344 224.986138,68.9368517 224.986138,68.9368517 C224.986138,75.6432624 221.975097,91.5196633 217.869131,119.166499 C217.047938,124.504255 216.774207,128.336489 224.575542,128.336489 C231.829414,128.336489 234.156128,124.64112 235.114187,119.303365 C236.619708,109.722778 236.619708,106.438005 237.714632,98.9104016 C238.125229,96.4468222 240.178211,94.8044359 241.957463,94.8044359 C244.010446,94.8044359 245.10537,96.1730911 244.694774,99.0472671 L244.694774,99.0472671 L244.694774,99.0472671 Z M306.421125,113.965609 C305.873663,117.250382 306.968587,117.797844 308.474108,118.071575 C306.421125,127.925893 289.860397,134.084841 290.544724,120.124558 C281.648465,135.316631 262.350426,130.936934 265.772064,109.175316 C268.235644,88.6454873 278.089962,81.3916145 285.754431,81.52848 C288.081145,81.52848 294.924421,82.0759421 295.745614,90.8353357 C297.798597,81.52848 305.189335,80.7072868 311.348284,83.5814629 C309.705898,93.7095117 307.652915,106.711736 306.421125,113.965609 L306.421125,113.965609 L306.421125,113.965609 Z M290.270993,111.638895 L292.187111,99.8684603 C292.460842,97.9523429 292.050245,95.0781669 289.860397,94.8044359 C285.343834,94.2569738 283.975179,107.259199 283.564583,113.418147 C283.290852,117.524113 288.21801,118.482172 290.270993,111.638895 L290.270993,111.638895 L290.270993,111.638895 Z M316.001712,93.8463772 C317.780964,93.2989151 319.833947,93.025184 322.023795,92.8883185 C321.613198,95.0781669 321.202602,97.2680153 320.928871,99.5947292 C319.970812,105.616812 319.286485,111.228299 319.012753,113.828744 C317.780964,123.956793 323.255585,129.020817 330.235726,129.020817 C337.079003,129.020817 342.827355,124.230524 343.648548,119.44023 C343.922279,118.071575 343.648548,116.566054 342.96422,115.334265 C341.595565,116.018592 340.637506,116.292323 339.816313,116.292323 C335.02602,116.292323 337.626465,104.658754 338.858254,96.5836877 L339.405717,93.4357806 C344.332875,93.4357806 346.796455,91.3827978 347.343917,87.5505631 C347.617648,85.6344457 347.207051,83.7183284 345.975262,82.4865387 C344.743472,82.8971352 342.827355,83.1708663 340.500641,83.1708663 C340.774372,79.8860937 340.911237,76.7381866 340.911237,74.9589348 C340.774372,73.8640106 338.037061,72.3584899 334.067961,72.3584899 C331.467516,72.3584899 328.456475,73.0428175 325.308568,74.8220693 L323.939912,82.7602697 L322.297526,82.7602697 C319.012753,82.7602697 316.275443,85.4975802 315.727981,89.0560838 C315.180519,90.6984701 315.317384,92.2039909 316.001712,93.8463772 L316.001712,93.8463772 L316.001712,93.8463772 Z M171.745449,99.5947292 C168.05008,125.188582 184.200212,128.062758 190.632892,128.336489 C209.109737,129.020817 221.975097,110.407106 211.710182,108.354123 C205.414368,112.73382 202.266461,113.418147 198.571092,113.828744 C184.337077,115.47113 189.127371,84.2657905 199.939747,84.402656 C202.266461,84.2657905 204.866906,85.9081768 203.635116,90.2878736 C208.699141,91.2459322 215.13182,87.8242941 216.089879,83.0340008 C220.33271,62.9147687 175.98828,61.4092479 171.745449,99.5947292 L171.745449,99.5947292 Z" id="Shape" fill="#FFFFFF" sketch:type="MSShapeGroup"></path>
                <path d="M184.848485,182.878788 C188.333333,182.878788 191.212121,180 191.212121,176.515152 C191.212121,173.030303 188.333333,170.151515 184.848485,170.151515 C181.363636,170.151515 178.484848,173.030303 178.484848,176.515152 C178.484848,180 181.363636,182.878788 184.848485,182.878788 L184.848485,182.878788 Z" id="Shape" fill="#FFFFFF" sketch:type="MSShapeGroup"></path>
                <path d="M209.090909,182.878788 C212.575758,182.878788 215.454545,180 215.454545,176.515152 C215.454545,173.030303 212.575758,170.151515 209.090909,170.151515 C205.606061,170.151515 202.727273,173.030303 202.727273,176.515152 C202.727273,180 205.606061,182.878788 209.090909,182.878788 L209.090909,182.878788 Z" id="Shape" fill="#FFFFFF" sketch:type="MSShapeGroup"></path>
                <path d="M233.333333,182.878788 C236.818182,182.878788 239.69697,180 239.69697,176.515152 C239.69697,173.030303 236.818182,170.151515 233.333333,170.151515 C229.848485,170.151515 226.969697,173.030303 226.969697,176.515152 C226.969697,180 229.848485,182.878788 233.333333,182.878788 L233.333333,182.878788 Z" id="Shape" fill="#FFFFFF" sketch:type="MSShapeGroup"></path>
            </g>
        </g>
    </g>
</svg>